<svg viewBox="0 0 24 24" xmlns="http://www.w3.org/2000/svg" fill="none" stroke="currentColor" stroke-width="1.5" stroke-linecap="round" stroke-linejoin="round">
  <circle cx="12" cy="12" r="3.2"/>
  <path d="M4.9 12a7.1 7.1 0 01.1-1.1l-2-.9 1.5-2.6 2 .6a7.2 7.2 0 01.8-.8l-.6-2 2.6-1.5.9 2a7.1 7.1 0 011.1-.1l.9-2.1 3 .1.6 2.1a7.1 7.1 0 011 .4l2-.6 1.5 2.6-1.9 1a7.1 7.1 0 010 2.2l1.9 1-1.5 2.6-2-.6a7.2 7.2 0 01-.8.8l.6 2-2.6 1.5-.9-2a7.1 7.1 0 01-1.1.1l-.9 2.1-3-.1-.6-2.1a7.1 7.1 0 01-1-.4l-2 .6-1.5-2.6 1.9-1a7.1 7.1 0 01-.1-1.1z"/>
</svg>
