<svg xmlns="http://www.w3.org/2000/svg" viewBox="0 0 24 24" fill="none" stroke="currentColor" stroke-width="1.6" stroke-linecap="round" stroke-linejoin="round">
  <path d="M12 8a4 4 0 1 0 0 8 4 4 0 0 0 0-8z"/>
  <path d="M3 12.75v-1.5l2.1-.6a7 7 0 0 1 1-2.4l-1.2-2 1.1-1.1 2 1.2a7 7 0 0 1 2.4-1L11.25 3h1.5l.6 2.1a7 7 0 0 1 2.4 1l2-1.2 1.1 1.1-1.2 2a7 7 0 0 1 1 2.4l2.1.6v1.5l-2.1.6a7 7 0 0 1-1 2.4l1.2 2-1.1 1.1-2-1.2a7 7 0 0 1-2.4 1l-.6 2.1h-1.5l-.6-2.1a7 7 0 0 1-2.4-1l-2 1.2-1.1-1.1 1.2-2a7 7 0 0 1-1-2.4z"/>
</svg>
